<svg width="34" height="34" viewBox="0 0 34 34" fill="none" xmlns="http://www.w3.org/2000/svg">
<path d="M19.5925 26.9171C19.3808 26.9179 19.1717 26.8711 18.9805 26.7804C18.7893 26.6897 18.6208 26.5573 18.4875 26.393L11.645 17.893C11.4366 17.6395 11.3227 17.3215 11.3227 16.9934C11.3227 16.6653 11.4366 16.3473 11.645 16.0938L18.7283 7.59381C18.9688 7.3045 19.3143 7.12256 19.6889 7.08803C20.0635 7.05349 20.4365 7.16918 20.7258 7.40964C21.0151 7.6501 21.197 7.99564 21.2316 8.37025C21.2661 8.74485 21.1504 9.11783 20.91 9.40714L14.5775 17.0005L20.6975 24.5938C20.8707 24.8018 20.9807 25.055 21.0146 25.3235C21.0484 25.592 21.0046 25.8646 20.8884 26.109C20.7721 26.3535 20.5883 26.5595 20.3586 26.7027C20.129 26.8459 19.8631 26.9203 19.5925 26.9171Z" fill="white"/>
</svg>
