<svg width="22" height="22" viewBox="0 0 22 22" fill="none" xmlns="http://www.w3.org/2000/svg">
<path d="M8.66667 9.08333H1.66667C1.55616 9.08333 1.45018 9.03943 1.37204 8.96129C1.2939 8.88315 1.25 8.77717 1.25 8.66667V1.66667C1.25 1.55616 1.2939 1.45018 1.37204 1.37204C1.45018 1.2939 1.55616 1.25 1.66667 1.25H8.66667C8.77717 1.25 8.88315 1.2939 8.96129 1.37204C9.03943 1.45018 9.08333 1.55616 9.08333 1.66667V8.66667C9.08333 8.77717 9.03943 8.88315 8.96129 8.96129C8.88315 9.03943 8.77717 9.08333 8.66667 9.08333ZM20.3333 9.08333H13.3333C13.2228 9.08333 13.1168 9.03943 13.0387 8.96129C12.9606 8.88315 12.9167 8.77717 12.9167 8.66667V1.66667C12.9167 1.55616 12.9606 1.45018 13.0387 1.37204C13.1168 1.2939 13.2228 1.25 13.3333 1.25H20.3333C20.4438 1.25 20.5498 1.2939 20.628 1.37204C20.7061 1.45018 20.75 1.55616 20.75 1.66667V8.66667C20.75 8.77717 20.7061 8.88315 20.628 8.96129C20.5498 9.03943 20.4438 9.08333 20.3333 9.08333ZM8.66667 20.75H1.66667C1.55616 20.75 1.45018 20.7061 1.37204 20.628C1.2939 20.5498 1.25 20.4438 1.25 20.3333V13.3333C1.25 13.2228 1.2939 13.1168 1.37204 13.0387C1.45018 12.9606 1.55616 12.9167 1.66667 12.9167H8.66667C8.77717 12.9167 8.88315 12.9606 8.96129 13.0387C9.03943 13.1168 9.08333 13.2228 9.08333 13.3333V20.3333C9.08333 20.4438 9.03943 20.5498 8.96129 20.628C8.88315 20.7061 8.77717 20.75 8.66667 20.75ZM20.75 16.8333C20.75 18.9928 18.9928 20.75 16.8333 20.75C14.6739 20.75 12.9167 18.9928 12.9167 16.8333C12.9167 14.6739 14.6739 12.9167 16.8333 12.9167C18.9928 12.9167 20.75 14.6739 20.75 16.8333Z" stroke="#000000" stroke-width="1.5"/>
</svg>
