<svg width="277" height="109" viewBox="0 0 277 109" fill="none" xmlns="http://www.w3.org/2000/svg">
<g clip-path="url(#clip0_936_1851)">
<path d="M118.788 70.8751C117.039 71.7721 115.055 70.2001 115.408 68.1932L119.168 46.7653L103.208 31.5618C101.718 30.1394 102.493 27.539 104.49 27.2581L126.679 24.1051L136.573 4.50282C137.466 2.73604 139.88 2.73604 140.773 4.50282L150.667 24.1051L172.856 27.2581C174.854 27.539 175.628 30.1394 174.133 31.5618L158.178 46.7653L161.938 68.1932C162.291 70.2001 160.307 71.7721 158.559 70.8751L138.666 60.6549L118.783 70.8751H118.788Z" fill="#FFBCA2"/>
</g>
<g clip-path="url(#clip1_936_1851)">
<path d="M179.194 87.0158C177.602 87.694 175.958 86.1892 176.394 84.4489L181.039 65.8663L167.975 51.5148C166.755 50.1722 167.599 47.9371 169.371 47.8156L189.055 46.4366L198.972 29.8416C199.866 28.3459 201.987 28.4972 202.66 30.1047L210.121 47.9393L229.41 52.0983C231.146 52.4701 231.664 54.8023 230.262 55.9579L215.297 68.3101L217.257 87.3637C217.442 89.1483 215.601 90.4045 214.121 89.5072L197.292 79.2857L179.19 87.0155L179.194 87.0158Z" fill="#FFBCA2"/>
</g>
<g clip-path="url(#clip2_936_1851)">
<path d="M228.572 99.7856C227.222 100.205 226.01 98.8456 226.509 97.4672L231.824 82.7484L222.395 70.0012C221.515 68.8089 222.385 67.0621 223.836 67.1102L239.949 67.6204L249.384 54.9539C250.235 53.8123 251.946 54.111 252.36 55.4733L256.946 70.5873L272.28 75.566C273.66 76.0121 273.888 77.9506 272.653 78.7736L259.466 87.5733L259.48 103.222C259.482 104.688 257.882 105.557 256.754 104.705L243.922 95.0023L228.569 99.7851L228.572 99.7856Z" fill="#FFBCA2"/>
</g>
<g clip-path="url(#clip3_936_1851)">
<path d="M97.796 87.0158C99.3878 87.694 101.032 86.1892 100.596 84.4489L95.9514 65.8663L109.015 51.5148C110.235 50.1722 109.392 47.9371 107.62 47.8156L87.9356 46.4366L78.0187 29.8416C77.1242 28.3459 75.0037 28.4972 74.3307 30.1047L66.8697 47.9393L47.5807 52.0983C45.8438 52.4701 45.3264 54.8023 46.7284 55.9579L61.6929 68.3101L59.7332 87.3637C59.5486 89.1483 61.3896 90.4045 62.8691 89.5072L79.6983 79.2857L97.8 87.0155L97.796 87.0158Z" fill="#FFBCA2"/>
</g>
<g clip-path="url(#clip4_936_1851)">
<path d="M48.4183 99.7856C49.7683 100.205 50.9799 98.8456 50.4813 97.4672L45.1666 82.7484L54.5954 70.0012C55.4756 68.8089 54.6051 67.0621 53.1546 67.1102L37.0415 67.6204L27.606 54.9539C26.7551 53.8123 25.0441 54.111 24.6303 55.4733L20.0439 70.5873L4.71066 75.566C3.32974 76.0121 3.10243 77.9506 4.33772 78.7736L17.5242 87.5733L17.5101 103.222C17.508 104.688 19.1084 105.557 20.2366 104.705L33.0682 95.0023L48.4215 99.7851L48.4183 99.7856Z" fill="#FFBCA2"/>
</g>
<defs>
<clipPath id="clip0_936_1851">
<rect width="72.4836" height="72.4836" fill="white" transform="translate(102.422 0.915039)"/>
</clipPath>
<clipPath id="clip1_936_1851">
<rect width="63.8171" height="63.8171" fill="white" transform="translate(169.205 24.5508) rotate(4.08015)"/>
</clipPath>
<clipPath id="clip2_936_1851">
<rect width="52.1385" height="52.1385" fill="white" transform="translate(225.628 48.1875) rotate(9.90116)"/>
</clipPath>
<clipPath id="clip3_936_1851">
<rect width="63.8171" height="63.8171" fill="white" transform="matrix(-0.997465 0.0711519 0.0711519 0.997465 107.785 24.5508)"/>
</clipPath>
<clipPath id="clip4_936_1851">
<rect width="52.1385" height="52.1385" fill="white" transform="matrix(-0.985106 0.171949 0.171949 0.985106 51.3623 48.1875)"/>
</clipPath>
</defs>
</svg>
