<svg width="169" height="160" viewBox="0 0 169 160" fill="none" xmlns="http://www.w3.org/2000/svg">
<path fill-rule="evenodd" clip-rule="evenodd" d="M128.917 9.90527H40.5698V20.2153H9.85156V68.5753C9.85156 87.2653 30.5889 102.645 50.9384 104.245C57.6189 111.445 69.3694 116.675 79.8275 118.905V131.545C69.8267 134.635 51.9624 141.895 50.9384 149.805H119.572C118.538 141.895 98.8549 134.625 88.8342 131.545V118.905C99.3321 116.675 111.609 111.445 118.3 104.245C138.639 102.645 158.462 87.2653 158.462 68.5753V20.2153H128.917V9.90527ZM19.2857 29.3753H39.854V71.0353C39.854 79.2553 41.9616 87.0753 45.6696 94.1153C30.2807 89.1853 19.2857 76.4853 19.2857 61.6253V29.3753ZM99.849 80.1853L84.4998 71.6753L69.1308 80.1853L72.0634 62.1853L59.637 49.4453L76.8054 46.8153L84.4998 30.4553L92.1744 46.8153L109.343 49.4453L96.9164 62.1853L99.849 80.1853ZM122.664 95.4453C126.392 88.0853 128.529 79.9453 128.529 71.3353V29.6453H149.147V61.5053C149.147 77.0353 138.103 90.2953 122.664 95.4453Z" fill="#FFBCA2"/>
</svg>
