<svg width="60" height="60" viewBox="0 0 60 60" fill="none" xmlns="http://www.w3.org/2000/svg">
<path d="M60 30C60 37.9565 56.8393 45.5871 51.2132 51.2132C45.5871 56.8393 37.9565 60 30 60C22.0435 60 14.4129 56.8393 8.7868 51.2132C3.16071 45.5871 0 37.9565 0 30C0 22.0435 3.16071 14.4129 8.7868 8.7868C14.4129 3.16071 22.0435 0 30 0C37.9565 0 45.5871 3.16071 51.2132 8.7868C56.8393 14.4129 60 22.0435 60 30ZM45.1125 18.6375C44.8446 18.3706 44.5257 18.1604 44.1747 18.0196C43.8238 17.8787 43.448 17.8101 43.07 17.8178C42.6919 17.8255 42.3192 17.9094 41.9743 18.0644C41.6294 18.2194 41.3193 18.4424 41.0625 18.72L28.0388 35.3138L20.19 27.4613C19.6568 26.9645 18.9517 26.694 18.223 26.7068C17.4944 26.7197 16.7992 27.0149 16.2839 27.5302C15.7686 28.0455 15.4735 28.7407 15.4606 29.4693C15.4477 30.1979 15.7182 30.9031 16.215 31.4363L26.1375 41.3625C26.4048 41.6293 26.7231 41.8396 27.0734 41.9807C27.4238 42.1218 27.7989 42.191 28.1765 42.184C28.5542 42.177 28.9265 42.094 29.2714 41.94C29.6162 41.7859 29.9265 41.564 30.1838 41.2875L45.1538 22.575C45.6641 22.0444 45.946 21.3348 45.939 20.5986C45.932 19.8624 45.6366 19.1583 45.1163 18.6375H45.1125Z" fill="#3DDA69"/>
</svg>
