<svg width="60" height="60" viewBox="0 0 60 60" fill="none" xmlns="http://www.w3.org/2000/svg">
<g clip-path="url(#clip0_981_2447)">
<circle cx="30.1277" cy="30.1277" r="30.1277" fill="#FF7E7E"/>
<path d="M27.0606 30L18.9816 21.921C18.7886 21.728 18.6355 21.4989 18.5311 21.2468C18.4267 20.9947 18.3729 20.7244 18.3729 20.4515C18.3729 20.1786 18.4267 19.9084 18.5311 19.6563C18.6355 19.4041 18.7886 19.175 18.9816 18.9821C19.1746 18.7891 19.4036 18.636 19.6558 18.5316C19.9079 18.4272 20.1781 18.3734 20.451 18.3734C20.7239 18.3734 20.9942 18.4272 21.2463 18.5316C21.4984 18.636 21.7275 18.7891 21.9205 18.9821L29.9998 27.0614L38.0783 18.9994C38.0784 18.9993 38.0785 18.9992 38.0786 18.9991C38.2714 18.806 38.5003 18.6528 38.7524 18.5482C39.0046 18.4436 39.275 18.3897 39.548 18.3897C39.821 18.3897 40.0914 18.4436 40.3436 18.5482C40.5956 18.6528 40.8246 18.806 41.0174 18.9991L27.0606 30ZM27.0606 30L18.9816 38.079C18.7886 38.272 18.6355 38.5011 18.5311 38.7532C18.4267 39.0053 18.3729 39.2756 18.3729 39.5485C18.3729 39.8214 18.4267 40.0916 18.5311 40.3437C18.6355 40.5959 18.7886 40.825 18.9816 41.0179C19.1746 41.2109 19.4036 41.364 19.6558 41.4684C19.9079 41.5728 20.1781 41.6266 20.451 41.6266C20.7239 41.6266 20.9942 41.5728 21.2463 41.4684C21.4984 41.364 21.7275 41.2109 21.9205 41.0179L29.9995 32.9389L38.0785 41.0179C38.2715 41.2109 38.5006 41.364 38.7527 41.4684C39.0049 41.5728 39.2751 41.6266 39.548 41.6266C39.8209 41.6266 40.0911 41.5728 40.3432 41.4684C40.5954 41.364 40.8245 41.2109 41.0174 41.0179C41.2104 40.825 41.3635 40.5959 41.4679 40.3437C41.5724 40.0916 41.6261 39.8214 41.6261 39.5485C41.6261 39.2756 41.5724 39.0053 41.4679 38.7532C41.3635 38.5011 41.2104 38.272 41.0174 38.079L32.9384 30L41.0174 21.921C41.813 21.1254 41.813 19.7949 41.0176 18.9993L27.0606 30Z" fill="#010101" stroke="#010101" stroke-width="0.753191"/>
</g>
<defs>
<clipPath id="clip0_981_2447">
<rect width="60" height="60" fill="white"/>
</clipPath>
</defs>
</svg>
