<svg width="22" height="24" viewBox="0 0 22 24" fill="none" xmlns="http://www.w3.org/2000/svg">
<path d="M9.30833 0.953728C9.78173 0.554754 10.3809 0.335938 11 0.335938C11.6191 0.335938 12.2183 0.554754 12.6917 0.953728L20.5667 7.59439C21.1582 8.09373 21.5 8.82756 21.5 9.60106V21.0379C21.5 21.5794 21.2849 22.0987 20.902 22.4816C20.5191 22.8645 19.9998 23.0796 19.4583 23.0796H15.375C14.8335 23.0796 14.3142 22.8645 13.9313 22.4816C13.5484 22.0987 13.3333 21.5794 13.3333 21.0379V14.6212C13.3333 14.5439 13.3026 14.4697 13.2479 14.415C13.1932 14.3603 13.119 14.3296 13.0417 14.3296H8.95833C8.88098 14.3296 8.80679 14.3603 8.75209 14.415C8.6974 14.4697 8.66667 14.5439 8.66667 14.6212V21.0379C8.66667 21.5794 8.45156 22.0987 8.06868 22.4816C7.68579 22.8645 7.16648 23.0796 6.625 23.0796H2.54167C2.27355 23.0796 2.00806 23.0267 1.76035 22.9241C1.51265 22.8215 1.28758 22.6712 1.09799 22.4816C0.908404 22.292 0.758016 22.0669 0.655413 21.8192C0.552809 21.5715 0.5 21.306 0.5 21.0379V9.60106C0.5 8.82756 0.841833 8.09373 1.43333 7.59439L9.30833 0.953728ZM11.5635 2.29189C11.4058 2.15911 11.2062 2.08629 11 2.08629C10.7938 2.08629 10.5942 2.15911 10.4365 2.29189L2.5615 8.93139C2.46405 9.01343 2.38568 9.11576 2.33188 9.23122C2.27807 9.34669 2.25013 9.47251 2.25 9.59989V21.0367C2.25 21.1977 2.38067 21.3284 2.54167 21.3284H6.625C6.70235 21.3284 6.77654 21.2977 6.83124 21.243C6.88594 21.1883 6.91667 21.1141 6.91667 21.0367V14.6201C6.91667 13.4919 7.83133 12.5784 8.95833 12.5784H13.0417C14.1687 12.5784 15.0833 13.4919 15.0833 14.6201V21.0367C15.0833 21.1977 15.214 21.3284 15.375 21.3284H19.4583C19.5357 21.3284 19.6099 21.2977 19.6646 21.243C19.7193 21.1883 19.75 21.1141 19.75 21.0367V9.60106C19.7499 9.47367 19.7219 9.34785 19.6681 9.23239C19.6143 9.11692 19.536 9.0146 19.4385 8.93256L11.5635 2.29189Z" fill="#000000"/>
</svg>
