<svg width="28" height="28" viewBox="0 0 28 28" fill="none" xmlns="http://www.w3.org/2000/svg">
<path d="M22.5 6.99973C22.4998 6.83508 22.4531 6.67384 22.3653 6.53454C22.2775 6.39523 22.1522 6.28352 22.0038 6.21224C21.8554 6.14095 21.6899 6.11299 21.5263 6.13156C21.3627 6.15014 21.2077 6.21449 21.079 6.31723L16.9438 9.62473H12.875C12.6429 9.62473 12.4204 9.71692 12.2563 9.88101C12.0922 10.0451 12 10.2677 12 10.4997V17.4997C12 17.7318 12.0922 17.9544 12.2563 18.1185C12.4204 18.2825 12.6429 18.3747 12.875 18.3747H16.9438L21.079 21.6822C21.2077 21.785 21.3627 21.8493 21.5263 21.8679C21.6899 21.8865 21.8554 21.8585 22.0038 21.7872C22.1522 21.7159 22.2775 21.6042 22.3653 21.4649C22.4531 21.3256 22.4998 21.1644 22.5 20.9997V6.99973ZM17.796 11.1822L20.75 8.81973V19.1797L17.796 16.8172C17.6411 16.693 17.4486 16.6251 17.25 16.6247H13.75V11.3747H17.25C17.4486 11.3744 17.6411 11.3065 17.796 11.1822ZM27.7938 13.9997C27.7951 15.0341 27.592 16.0585 27.1962 17.0142C26.8004 17.9698 26.2196 18.8378 25.4873 19.5682L24.25 18.331C24.8196 17.7628 25.2713 17.0877 25.5791 16.3444C25.887 15.6011 26.0449 14.8043 26.0438 13.9997C26.0448 13.1952 25.8868 12.3984 25.579 11.6551C25.2712 10.9119 24.8195 10.2367 24.25 9.66848L25.4873 8.43123C26.2196 9.16169 26.8004 10.0297 27.1962 10.9853C27.592 11.9409 27.7951 12.9654 27.7938 13.9997Z" fill="white" fill-opacity="0.6"/>
</svg>
