<svg width="23" height="16" viewBox="0 0 23 16" fill="none" xmlns="http://www.w3.org/2000/svg">
<path d="M10.0048 0.21251C10.153 0.283925 10.2781 0.395695 10.3657 0.53499C10.4533 0.674285 10.4999 0.835459 10.5 1.00001V15C10.4998 15.1647 10.4531 15.3259 10.3653 15.4652C10.2775 15.6045 10.1522 15.7162 10.0038 15.7875C9.85541 15.8588 9.6899 15.8868 9.5263 15.8682C9.3627 15.8496 9.20766 15.7853 9.079 15.6825L4.94375 12.375H0.875C0.642936 12.375 0.420376 12.2828 0.256282 12.1187C0.0921872 11.9546 0 11.7321 0 11.5V4.50001C0 4.26795 0.0921872 4.04539 0.256282 3.88129C0.420376 3.7172 0.642936 3.62501 0.875 3.62501H4.94375L9.079 0.31751C9.20775 0.214589 9.36296 0.150128 9.52674 0.131552C9.69052 0.112975 9.85622 0.141039 10.0048 0.21251ZM8.75 2.82001L5.796 5.18251C5.64112 5.30677 5.44857 5.37466 5.25 5.37501H1.75V10.625H5.25C5.44857 10.6254 5.64112 10.6932 5.796 10.8175L8.75 13.18V2.82001ZM22.4945 3.88051C22.576 3.96179 22.6406 4.05835 22.6847 4.16465C22.7289 4.27096 22.7516 4.38492 22.7516 4.50001C22.7516 4.6151 22.7289 4.72907 22.6847 4.83537C22.6406 4.94167 22.576 5.03823 22.4945 5.11951L19.6123 8.00001L22.4945 10.8805C22.6588 11.0448 22.7511 11.2677 22.7511 11.5C22.7511 11.7324 22.6588 11.9552 22.4945 12.1195C22.3302 12.2838 22.1074 12.3761 21.875 12.3761C21.6426 12.3761 21.4198 12.2838 21.2555 12.1195L18.375 9.23726L15.4945 12.1195C15.3302 12.2838 15.1074 12.3761 14.875 12.3761C14.6426 12.3761 14.4198 12.2838 14.2555 12.1195C14.0912 11.9552 13.9989 11.7324 13.9989 11.5C13.9989 11.2677 14.0912 11.0448 14.2555 10.8805L17.1378 8.00001L14.2555 5.11951C14.1741 5.03816 14.1096 4.94158 14.0656 4.83528C14.0216 4.72899 13.9989 4.61506 13.9989 4.50001C13.9989 4.38496 14.0216 4.27103 14.0656 4.16474C14.1096 4.05845 14.1741 3.96186 14.2555 3.88051C14.4198 3.71621 14.6426 3.6239 14.875 3.6239C14.9901 3.6239 15.104 3.64657 15.2103 3.69059C15.3166 3.73462 15.4131 3.79916 15.4945 3.88051L18.375 6.76276L21.2555 3.88051C21.3368 3.79902 21.4333 3.73437 21.5396 3.69026C21.6459 3.64615 21.7599 3.62345 21.875 3.62345C21.9901 3.62345 22.1041 3.64615 22.2104 3.69026C22.3167 3.73437 22.4132 3.79902 22.4945 3.88051Z" fill="white" fill-opacity="0.6"/>
</svg>
